<svg version="1.2" xmlns="http://www.w3.org/2000/svg" viewBox="0 0 397 628" width="397" height="628"><style>.a{fill:#fdfdfd}</style><path class="a" d="m210.2 393.3c-4.5 5.6-8.8 11-13.5 16.9-2.8-2.1-5.7-4.1-8.3-6.4-7-5.9-13.8-12-20.8-17.8-6.8-5.7-13.9-11.2-20.8-16.9-5.1-4.2-10-8.7-15-12.9-6.6-5.6-13.2-11-19.8-16.5-5.5-4.6-10.9-9.2-16.4-13.7-7.2-6-14.5-11.9-21.8-17.9-6.6-5.5-13.2-11.1-19.8-16.6-6-5-12-9.9-17.9-14.9-8.7-7.3-17.3-14.7-25.8-22.1-1-0.9-1.7-2.6-1.7-3.9-0.2-9.3-0.2-18.6 0-27.9 0-1.6 1-3.6 2.2-4.6 22.6-18.9 45.4-37.6 68-56.4 30.4-25.3 60.7-50.7 91.1-76 8.7-7.4 17.4-14.8 26.6-22.6 4.5 5.7 8.9 11.8 13.8 17.5 4 4.7 8.6 8.9 12.8 13.5 0.5 0.5 0.3 2.3-0.2 2.7-24.1 20-48.3 39.9-72.4 59.9q-25.3 20.8-50.4 41.7c-14.4 12-28.8 24.1-43.1 36.2-2.1 1.7-2.2 2.9 0.4 4.5 3.1 1.9 5.7 4.6 8.5 6.9 5.4 4.4 10.8 8.7 16.2 13.1 2.5 2 4.9 4.1 7.3 6.2 7.8 6.4 15.7 12.7 23.4 19.3 5 4.2 9.5 8.9 14.5 13.1 4.8 4 10 7.6 15 11.5 2.6 2 5.1 4.3 7.6 6.5 5.9 4.9 11.8 9.7 17.6 14.7 4.9 4.2 9.5 8.8 14.5 13 5 4.1 10.4 7.8 15.4 11.9 5 4.2 9.6 8.8 14.6 13 3.7 3.1 7.8 5.8 11.9 8.9q-6.4 7.6-13.7 16.1z"/><path class="a" d="m190.9 553.1c-5.6-6.4-11-12.7-15.9-18.5 56.3-47 112.1-93.6 168.9-140.9-56.3-47-112.4-93.9-168.6-140.9 8.7-10.6 17.3-21 26-31.4 0.4-0.6 1.9-1.2 2.2-1 3.9 3.5 7.4 7.4 11.4 10.8 5 4.2 10.2 8 15.3 12 2.5 2 4.9 4.1 7.3 6.1 5.7 4.8 11.6 9.4 17.2 14.2 5 4.2 9.5 8.9 14.5 13.1 5.2 4.4 10.8 8.3 16 12.6 5 4.2 9.7 8.8 14.7 13 4.9 4.1 9.9 7.9 14.8 11.9 2.5 1.9 5 3.9 7.5 5.9 7.9 6.6 15.9 13.1 23.8 19.8 4.9 4.2 9.5 8.9 14.5 13.1 4.8 4 10.1 7.5 15 11.4q6.9 5.5 13.3 11.5c1.1 1 1.6 2.8 1.6 4.3q0.3 13.5 0 27c0 1.4-0.6 3.3-1.6 4.2-14.3 12-28.6 23.7-42.9 35.6-22.8 19-45.5 37.9-68.2 56.9q-36 30.1-72.1 60.2c-1 0.8-1.7 1.9-3.2 3.5-3.8-4.8-7.5-9.5-11.5-14.4z"/></svg>